<svg width="30" height="36" viewBox="0 0 30 36" fill="none" xmlns="http://www.w3.org/2000/svg">
<path d="M30 28.9744V30.6411H0V28.9744L3.33333 25.6411V15.6411C3.33333 10.4744 6.71667 5.92445 11.6667 4.45778V3.97445C11.6667 3.09039 12.0179 2.24255 12.643 1.61742C13.2681 0.992303 14.1159 0.641113 15 0.641113C15.8841 0.641113 16.7319 0.992303 17.357 1.61742C17.9821 2.24255 18.3333 3.09039 18.3333 3.97445V4.45778C23.2833 5.92445 26.6667 10.4744 26.6667 15.6411V25.6411L30 28.9744ZM18.3333 32.3078C18.3333 33.1918 17.9821 34.0397 17.357 34.6648C16.7319 35.2899 15.8841 35.6411 15 35.6411C14.1159 35.6411 13.2681 35.2899 12.643 34.6648C12.0179 34.0397 11.6667 33.1918 11.6667 32.3078" fill="white"/>
</svg>
